<svg width="24" height="24" viewBox="0 0 24 24" fill="none" xmlns="http://www.w3.org/2000/svg">
  <path fill-rule="evenodd" clip-rule="evenodd" d="M19.1838 4.91224L12.0001 4.74976L4.81639 4.91224C3.48523 4.94235 2.35813 5.90297 2.11744 7.21254C1.53572 10.3776 1.53572 13.6223 2.11744 16.7874C2.35813 18.0969 3.48523 19.0575 4.81639 19.0876L12.0001 19.2501L19.1838 19.0876C20.515 19.0575 21.6421 18.0969 21.8828 16.7874C22.4645 13.6223 22.4645 10.3776 21.8828 7.21254C21.6421 5.90297 20.515 4.94235 19.1838 4.91224ZM4.85031 6.41186L12.0001 6.25014L19.1499 6.41186C19.7702 6.42589 20.2953 6.87349 20.4075 7.48369C20.5608 8.31767 20.6712 9.15752 20.7389 9.99994H3.26133C3.32899 9.15752 3.43945 8.31767 3.59273 7.48369C3.70488 6.87349 4.23006 6.42589 4.85031 6.41186ZM3.18115 11.9999C3.18115 13.5116 3.31835 15.0233 3.59273 16.5162C3.70488 17.1264 4.23006 17.574 4.85031 17.588L12.0001 17.7498L19.1499 17.588C19.7702 17.574 20.2953 17.1264 20.4075 16.5162C20.6819 15.0233 20.8191 13.5116 20.8191 11.9999H3.18115Z" fill="white" fill-opacity="0.5"/>
</svg>
