<svg width="36" height="36" viewBox="0 0 36 36" fill="none" xmlns="http://www.w3.org/2000/svg">
  <circle cx="18" cy="18" r="18" fill="black"/>
  <path d="M11.4736 24.5229C11.6396 24.6834 11.8306 24.7886 12.0464 24.8384C12.2677 24.8937 12.4836 24.8937 12.6938 24.8384C12.9097 24.7886 13.0951 24.689 13.25 24.5396L17.9897 19.7998L22.7212 24.5312C22.8761 24.6917 23.0615 24.7969 23.2773 24.8467C23.4932 24.8965 23.709 24.8937 23.9248 24.8384C24.1406 24.7886 24.3288 24.6834 24.4893 24.5229C24.6497 24.3625 24.7549 24.1743 24.8047 23.9585C24.86 23.7427 24.8628 23.5269 24.813 23.311C24.7632 23.0952 24.6608 22.9098 24.5059 22.7549L19.7744 18.0151L24.5059 13.2837C24.6608 13.1232 24.7632 12.9378 24.813 12.7275C24.8683 12.5117 24.8683 12.2959 24.813 12.0801C24.7576 11.8643 24.6497 11.6761 24.4893 11.5156C24.3232 11.3551 24.1323 11.2472 23.9165 11.1919C23.7062 11.1366 23.4932 11.1366 23.2773 11.1919C23.0615 11.2417 22.8761 11.3441 22.7212 11.499L17.9897 16.2305L13.25 11.499C13.0951 11.3441 12.9097 11.2417 12.6938 11.1919C12.478 11.1421 12.2594 11.1421 12.0381 11.1919C11.8223 11.2417 11.6341 11.3496 11.4736 11.5156C11.3187 11.6761 11.2135 11.8643 11.1582 12.0801C11.1084 12.2959 11.1084 12.5117 11.1582 12.7275C11.2135 12.9434 11.3159 13.126 11.4653 13.2754L16.2051 18.0151L11.4653 22.7632C11.3159 22.9126 11.2135 23.0952 11.1582 23.311C11.1029 23.5213 11.1001 23.7371 11.1499 23.9585C11.2052 24.1743 11.3132 24.3625 11.4736 24.5229Z" fill="white"/>
</svg>
