<svg width="36" height="37" viewBox="0 0 36 37" fill="none" xmlns="http://www.w3.org/2000/svg">
  <circle cx="18" cy="18.5" r="18" fill="white" fill-opacity="0.2"/>
  <path fill-rule="evenodd" clip-rule="evenodd" d="M13.75 14.5C13.75 12.1528 15.6528 10.25 18 10.25C20.3472 10.25 22.25 12.1528 22.25 14.5C22.25 16.8472 20.3472 18.75 18 18.75C15.6528 18.75 13.75 16.8472 13.75 14.5ZM18 11.75C16.4812 11.75 15.25 12.9812 15.25 14.5C15.25 16.0188 16.4812 17.25 18 17.25C19.5188 17.25 20.75 16.0188 20.75 14.5C20.75 12.9812 19.5188 11.75 18 11.75Z" fill="white" fill-opacity="0.5"/>
  <path fill-rule="evenodd" clip-rule="evenodd" d="M14 21.75C12.7574 21.75 11.75 22.7574 11.75 24V25.1883C11.75 25.2064 11.7631 25.2218 11.781 25.2247C15.8997 25.8972 20.1003 25.8972 24.219 25.2247C24.2369 25.2218 24.25 25.2064 24.25 25.1883V24C24.25 22.7574 23.2426 21.75 22 21.75H21.6591C21.6328 21.75 21.6066 21.7542 21.5815 21.7623L20.716 22.045C18.9512 22.6212 17.0488 22.6212 15.284 22.045L14.4185 21.7623C14.3934 21.7542 14.3672 21.75 14.3409 21.75H14ZM10.25 24C10.25 21.9289 11.9289 20.25 14 20.25H14.3409C14.5254 20.25 14.7087 20.2792 14.8841 20.3364L15.7496 20.6191C17.2119 21.0965 18.7881 21.0965 20.2504 20.6191L21.1159 20.3364C21.2913 20.2792 21.4746 20.25 21.6591 20.25H22C24.0711 20.25 25.75 21.9289 25.75 24V25.1883C25.75 25.9415 25.2041 26.5837 24.4607 26.7051C20.1819 27.4037 15.8181 27.4037 11.5393 26.7051C10.7959 26.5837 10.25 25.9415 10.25 25.1883V24Z" fill="white" fill-opacity="0.5"/>
</svg>
