<svg width="24" height="24" viewBox="0 0 24 24" fill="none" xmlns="http://www.w3.org/2000/svg">
  <path fill-rule="evenodd" clip-rule="evenodd" d="M19.2661 10.4837C20.258 11.2512 20.258 12.7487 19.2661 13.5162C16.2685 15.8356 12.9213 17.6637 9.34979 18.9322L8.69731 19.1639C7.44904 19.6073 6.13053 18.7627 5.96154 17.4742C5.48938 13.8739 5.48938 10.126 5.96154 6.52574C6.13053 5.23719 7.44904 4.39263 8.69732 4.83597L9.34979 5.06771C12.9213 6.33619 16.2685 8.16434 19.2661 10.4837ZM18.3481 12.3298C18.5639 12.1628 18.5639 11.837 18.3481 11.6701C15.4763 9.44796 12.2695 7.69648 8.84777 6.4812L8.19529 6.24947C7.87034 6.13406 7.49691 6.35401 7.44881 6.72079C6.99363 10.1915 6.99363 13.8084 7.4488 17.2791C7.49691 17.6459 7.87034 17.8658 8.19529 17.7504L8.84777 17.5187C12.2695 16.3034 15.4763 14.5519 18.3481 12.3298Z" fill="white" fill-opacity="0.5"/>
</svg>
